<svg width="1200" height="630" viewBox="0 0 1200 630" fill="none" xmlns="http://www.w3.org/2000/svg">
  <rect width="1200" height="630" fill="#fff8e8"/>
  <path d="M0 0H1200V630H0V0Z" fill="#fff8e8"/>
  <path d="M0 0H1200V630H0V0Z" fill="url(#grid)"/>
  <circle cx="168" cy="122" r="190" fill="#ff5c35" fill-opacity="0.24"/>
  <circle cx="1010" cy="126" r="170" fill="#6bd1ff" fill-opacity="0.28"/>
  <rect x="70" y="64" width="1060" height="502" fill="#fffdf6" stroke="#171412" stroke-width="8"/>
  <rect x="92" y="86" width="1016" height="458" fill="#ffbf1f" stroke="#171412" stroke-width="4"/>
  <rect x="130" y="124" width="214" height="62" fill="#ff5c35" stroke="#171412" stroke-width="4"/>
  <text x="152" y="166" fill="#fff8e8" font-family="Verdana, sans-serif" font-size="24" font-weight="900" letter-spacing="3">BELANJA ONLINE</text>
  <text x="130" y="292" fill="#171412" font-family="Verdana, sans-serif" font-size="88" font-weight="900" letter-spacing="-8">BJIR</text>
  <text x="130" y="392" fill="#171412" font-family="Verdana, sans-serif" font-size="88" font-weight="900" letter-spacing="-8">E-COMMERCE</text>
  <text x="136" y="458" fill="#171412" font-family="Verdana, sans-serif" font-size="28" font-weight="800">Belanja cepat, stok jelas, checkout tanpa drama.</text>
  <rect x="846" y="158" width="176" height="176" fill="#fffdf6" stroke="#171412" stroke-width="6"/>
  <rect x="802" y="248" width="176" height="176" fill="#6bd1ff" stroke="#171412" stroke-width="6"/>
  <rect x="890" y="340" width="176" height="176" fill="#ff5c35" stroke="#171412" stroke-width="6"/>
  <path d="M864 242H1004" stroke="#171412" stroke-width="10"/>
  <path d="M890 270H978" stroke="#171412" stroke-width="10"/>
  <path d="M846 332H930" stroke="#171412" stroke-width="10"/>
  <path d="M916 424H1040" stroke="#171412" stroke-width="10"/>
  <path d="M916 456H1002" stroke="#171412" stroke-width="10"/>
  <defs>
    <pattern id="grid" width="32" height="32" patternUnits="userSpaceOnUse">
      <path d="M32 0H0V32" stroke="#171412" stroke-opacity="0.12" stroke-width="2"/>
    </pattern>
  </defs>
</svg>